<svg width="12" height="12" viewBox="0 0 12 12" fill="none" xmlns="http://www.w3.org/2000/svg">
<path d="M4 6C4.36667 6 4.68067 5.86933 4.942 5.608C5.20289 5.34711 5.33333 5.03333 5.33333 4.66667C5.33333 4.3 5.20289 3.986 4.942 3.72467C4.68067 3.46378 4.36667 3.33333 4 3.33333C3.63333 3.33333 3.31956 3.46378 3.05867 3.72467C2.79733 3.986 2.66667 4.3 2.66667 4.66667C2.66667 5.03333 2.79733 5.34711 3.05867 5.608C3.31956 5.86933 3.63333 6 4 6ZM8 6C8.36667 6 8.68067 5.86933 8.942 5.608C9.20289 5.34711 9.33333 5.03333 9.33333 4.66667C9.33333 4.3 9.20289 3.986 8.942 3.72467C8.68067 3.46378 8.36667 3.33333 8 3.33333C7.63333 3.33333 7.31956 3.46378 7.05867 3.72467C6.79733 3.986 6.66667 4.3 6.66667 4.66667C6.66667 5.03333 6.79733 5.34711 7.05867 5.608C7.31956 5.86933 7.63333 6 8 6ZM4 12V9.33333H5.33333V12H4ZM6.66667 12V9.33333H8V12H6.66667ZM1.33333 12C0.966667 12 0.652667 11.8696 0.391333 11.6087C0.130444 11.3473 0 11.0333 0 10.6667V4C0 2.88889 0.388889 1.94444 1.16667 1.16667C1.94444 0.388889 2.88889 0 4 0H8C9.11111 0 10.0556 0.388889 10.8333 1.16667C11.6111 1.94444 12 2.88889 12 4V10.6667C12 11.0333 11.8696 11.3473 11.6087 11.6087C11.3473 11.8696 11.0333 12 10.6667 12H9.33333V9.33333C9.33333 8.96667 9.20289 8.65289 8.942 8.392C8.68067 8.13067 8.36667 8 8 8H4C3.63333 8 3.31956 8.13067 3.05867 8.392C2.79733 8.65289 2.66667 8.96667 2.66667 9.33333V12H1.33333Z" fill="white"/>
</svg>
